<?xml version="1.0" encoding="UTF-8" standalone="no"?>
<!DOCTYPE svg PUBLIC "-//W3C//DTD SVG 1.1//EN"
 "http://www.w3.org/Graphics/SVG/1.1/DTD/svg11.dtd">
<!-- Generated by graphviz version 2.38.0 (20140413.2041)
 -->
<!-- Title: G Pages: 1 -->
<svg width="557pt" height="775pt"
 viewBox="0.00 0.00 557.00 775.00" xmlns="http://www.w3.org/2000/svg" xmlns:xlink="http://www.w3.org/1999/xlink">
<g id="graph0" class="graph" transform="scale(1 1) rotate(0) translate(4 771)">
<title>G</title>
<polygon fill="white" stroke="none" points="-4,4 -4,-771 553,-771 553,4 -4,4"/>
<g id="clust1" class="cluster"><title>cluster_family_0</title>
<polygon fill="#fafafa" stroke="#fafafa" points="34,-610 34,-759 515,-759 515,-610 34,-610"/>
<text text-anchor="start" x="42" y="-741.6" font-family="Helvetica, Arial, sans-serif" font-weight="bold" font-size="16.00">ラダゴン(マリカ)</text>
</g>
<g id="clust4" class="cluster"><title>cluster_family_1</title>
<polygon fill="#fafafa" stroke="#fafafa" points="34,-279 34,-548 515,-548 515,-279 34,-279"/>
<text text-anchor="start" x="42" y="-530.6" font-family="Helvetica, Arial, sans-serif" font-weight="bold" font-size="16.00">ゴッドフレイ</text>
</g>
<g id="clust5" class="cluster"><title>cluster_family_1_0</title>
</g>
<g id="clust10" class="cluster"><title>cluster_family_2</title>
<polygon fill="#fafafa" stroke="#fafafa" points="34,-8 34,-217 515,-217 515,-8 34,-8"/>
<text text-anchor="start" x="42" y="-199.6" font-family="Helvetica, Arial, sans-serif" font-weight="bold" font-size="16.00">ラダゴン</text>
</g>
<g id="clust13" class="cluster"><title>cluster_family_3</title>
</g>
<g id="clust15" class="cluster"><title>cluster_family_4</title>
</g>
<!-- union_0 -->
<g id="node1" class="node"><title>union_0</title>
<ellipse fill="#1abc9c" stroke="white" cx="256.5" cy="-671" rx="3.5" ry="3.5"/>
</g>
<!-- siblings_0 -->
<g id="node4" class="node"><title>siblings_0</title>
<polygon fill="#1abc9c" stroke="#cccccc" stroke-width="0" points="296,-671.5 289,-671.5 289,-670.5 296,-670.5 296,-671.5"/>
</g>
<!-- union_0&#45;&gt;siblings_0 -->
<g id="edge3" class="edge"><title>union_0&#45;&gt;siblings_0</title>
<path fill="none" stroke="#1abc9c" d="M260.083,-671C266.913,-671 281.732,-671 288.715,-671"/>
</g>
<!-- マリカ -->
<g id="node2" class="node"><title>マリカ</title>
<polygon fill="white" stroke="orange" points="224,-722 44,-722 44,-680 224,-680 224,-722"/>
<text text-anchor="start" x="112.229" y="-703.4" font-family="Helvetica, Arial, sans-serif" font-size="14.00">マリカ</text>
<text text-anchor="start" x="106.587" y="-689" font-family="Helvetica, Arial, sans-serif" font-size="10.00" fill="#aaaaaa">永遠の女王</text>
</g>
<!-- マリカ&#45;&gt;union_0 -->
<g id="edge1" class="edge"><title>マリカ&#45;&gt;union_0</title>
<path fill="none" stroke="#1abc9c" d="M224.038,-701C242.794,-701 257,-701 257,-701 257,-701 257,-682.689 257,-674.679"/>
</g>
<!-- union_1 -->
<g id="node11" class="node"><title>union_1</title>
<ellipse fill="#2ecc71" stroke="white" cx="256.5" cy="-430" rx="3.5" ry="3.5"/>
</g>
<!-- マリカ&#45;&gt;union_1 -->
<g id="edge9" class="edge"><title>マリカ&#45;&gt;union_1</title>
<path fill="none" stroke="#2ecc71" d="M224.08,-690.5C235.893,-690.5 244,-690.5 244,-690.5 244,-690.5 244,-430 244,-430 244,-430 249.13,-430 252.817,-430"/>
</g>
<!-- ラダゴン -->
<g id="node3" class="node"><title>ラダゴン</title>
<polygon fill="white" stroke="#cccccc" points="224,-662 44,-662 44,-620 224,-620 224,-662"/>
<text text-anchor="start" x="106.743" y="-643.4" font-family="Helvetica, Arial, sans-serif" font-size="14.00">ラダゴン</text>
<text text-anchor="start" x="83.903" y="-629" font-family="Helvetica, Arial, sans-serif" font-size="10.00" fill="#aaaaaa">黄金律、エルデの王</text>
</g>
<!-- ラダゴン&#45;&gt;union_0 -->
<g id="edge2" class="edge"><title>ラダゴン&#45;&gt;union_0</title>
<path fill="none" stroke="#1abc9c" d="M224.038,-641C242.794,-641 257,-641 257,-641 257,-641 257,-659.311 257,-667.321"/>
</g>
<!-- union_2 -->
<g id="node16" class="node"><title>union_2</title>
<ellipse fill="#9b59b6" stroke="white" cx="256.5" cy="-129" rx="3.5" ry="3.5"/>
</g>
<!-- ラダゴン&#45;&gt;union_2 -->
<g id="edge15" class="edge"><title>ラダゴン&#45;&gt;union_2</title>
<path fill="none" stroke="#9b59b6" d="M224.046,-630.5C230.185,-630.5 234,-630.5 234,-630.5 234,-630.5 234,-130.167 234,-130.167 234,-130.167 246.656,-130.167 252.984,-130.167"/>
</g>
<!-- マレニア -->
<g id="node5" class="node"><title>マレニア</title>
<polygon fill="white" stroke="mediumblue" points="505,-662 325,-662 325,-620 505,-620 505,-662"/>
<text text-anchor="start" x="387.249" y="-643.4" font-family="Helvetica, Arial, sans-serif" font-size="14.00">マレニア</text>
<text text-anchor="start" x="369.828" y="-629" font-family="Helvetica, Arial, sans-serif" font-size="10.00" fill="#aaaaaa">ミケラの刃、欠け身</text>
</g>
<!-- siblings_0&#45;&gt;マレニア -->
<g id="edge4" class="edge"><title>siblings_0&#45;&gt;マレニア</title>
<path fill="none" stroke="#1abc9c" d="M294,-670.162C294,-666.43 294,-651.5 294,-651.5 294,-651.5 314.846,-651.5 314.846,-651.5"/>
<polygon fill="#1abc9c" stroke="#1abc9c" points="322.846,-641.5 322.847,-661.5 318.847,-661.5 318.846,-641.5 322.846,-641.5"/>
<polyline fill="none" stroke="#1abc9c" points="324.846,-651.5 314.846,-651.5 "/>
</g>
<!-- ミケラ -->
<g id="node6" class="node"><title>ミケラ</title>
<polygon fill="white" stroke="mediumblue" points="505,-722 325,-722 325,-680 505,-680 505,-722"/>
<text text-anchor="start" x="394.723" y="-703.4" font-family="Helvetica, Arial, sans-serif" font-size="14.00">ミケラ</text>
<text text-anchor="start" x="400.659" y="-689" font-family="Helvetica, Arial, sans-serif" font-size="10.00" fill="#aaaaaa">ミケラ</text>
</g>
<!-- siblings_0&#45;&gt;ミケラ -->
<g id="edge5" class="edge"><title>siblings_0&#45;&gt;ミケラ</title>
<path fill="none" stroke="#1abc9c" d="M293,-671.703C293,-677.081 293,-711.5 293,-711.5 293,-711.5 314.736,-711.5 314.736,-711.5"/>
<polygon fill="#1abc9c" stroke="#1abc9c" points="322.735,-701.5 322.736,-721.5 318.736,-721.5 318.735,-701.5 322.735,-701.5"/>
<polyline fill="none" stroke="#1abc9c" points="324.736,-711.5 314.736,-711.5 "/>
</g>
<!-- union_1_0 -->
<g id="node7" class="node"><title>union_1_0</title>
<ellipse fill="#3498db" stroke="white" cx="256.5" cy="-310" rx="3.5" ry="3.5"/>
</g>
<!-- siblings_1_0 -->
<g id="node9" class="node"><title>siblings_1_0</title>
<polygon fill="#3498db" stroke="#cccccc" stroke-width="0" points="296,-310.5 289,-310.5 289,-309.5 296,-309.5 296,-310.5"/>
</g>
<!-- union_1_0&#45;&gt;siblings_1_0 -->
<g id="edge7" class="edge"><title>union_1_0&#45;&gt;siblings_1_0</title>
<path fill="none" stroke="#3498db" d="M260.083,-310C266.913,-310 281.732,-310 288.715,-310"/>
</g>
<!-- ゴッドフレイ -->
<g id="node8" class="node"><title>ゴッドフレイ</title>
<polygon fill="white" stroke="green" points="224,-331 44,-331 44,-289 224,-289 224,-331"/>
<text text-anchor="start" x="95.5126" y="-312.4" font-family="Helvetica, Arial, sans-serif" font-size="14.00">ゴッドフレイ</text>
<text text-anchor="start" x="73.79" y="-298" font-family="Helvetica, Arial, sans-serif" font-size="10.00" fill="#aaaaaa">最初の王、ホーラ・ルー</text>
</g>
<!-- ゴッドフレイ&#45;&gt;union_1_0 -->
<g id="edge6" class="edge"><title>ゴッドフレイ&#45;&gt;union_1_0</title>
<path fill="none" stroke="#3498db" d="M224.315,-310C236.938,-310 247.417,-310 252.733,-310"/>
</g>
<!-- ゴッドフレイ&#45;&gt;union_1 -->
<g id="edge10" class="edge"><title>ゴッドフレイ&#45;&gt;union_1</title>
<path fill="none" stroke="#2ecc71" d="M224.038,-322.25C242.794,-322.25 257,-322.25 257,-322.25 257,-322.25 257,-407.719 257,-426.415"/>
</g>
<!-- ネフェリ・ルー -->
<g id="node10" class="node"><title>ネフェリ・ルー</title>
<polygon fill="white" stroke="green" points="505,-331 325,-331 325,-289 505,-289 505,-331"/>
<text text-anchor="start" x="358.863" y="-312.4" font-family="Helvetica, Arial, sans-serif" font-size="14.00">ネフェリ・ルー</text>
<text text-anchor="start" x="402.993" y="-298" font-family="Helvetica, Arial, sans-serif" font-size="10.00" fill="#aaaaaa">戦士</text>
</g>
<!-- siblings_1_0&#45;&gt;ネフェリ・ルー -->
<g id="edge8" class="edge"><title>siblings_1_0&#45;&gt;ネフェリ・ルー</title>
<path fill="none" stroke="#3498db" d="M296.034,-310C296.034,-310 314.811,-310 314.811,-310"/>
<polygon fill="#3498db" stroke="#3498db" points="322.81,-300 322.811,-320 318.811,-320 318.81,-300 322.81,-300"/>
<polyline fill="none" stroke="#3498db" points="324.811,-310 314.811,-310 "/>
</g>
<!-- siblings_1 -->
<g id="node12" class="node"><title>siblings_1</title>
<polygon fill="#2ecc71" stroke="#cccccc" stroke-width="0" points="296,-430.5 289,-430.5 289,-429.5 296,-429.5 296,-430.5"/>
</g>
<!-- union_1&#45;&gt;siblings_1 -->
<g id="edge11" class="edge"><title>union_1&#45;&gt;siblings_1</title>
<path fill="none" stroke="#2ecc71" d="M260.083,-430C266.913,-430 281.732,-430 288.715,-430"/>
</g>
<!-- ゴッドウィン -->
<g id="node13" class="node"><title>ゴッドウィン</title>
<polygon fill="firebrick" stroke="mediumblue" points="505,-511 325,-511 325,-469 505,-469 505,-511"/>
<text text-anchor="start" x="370.783" y="-492.4" font-family="Helvetica, Arial, sans-serif" font-size="14.00">ゴッドウィン</text>
<text text-anchor="start" x="400.773" y="-478" font-family="Helvetica, Arial, sans-serif" font-size="10.00" fill="#aaaaaa">黄金</text>
</g>
<!-- siblings_1&#45;&gt;ゴッドウィン -->
<g id="edge12" class="edge"><title>siblings_1&#45;&gt;ゴッドウィン</title>
<path fill="none" stroke="#2ecc71" d="M292,-430.674C292,-437.266 292,-490 292,-490 292,-490 314.962,-490 314.962,-490"/>
<polygon fill="#2ecc71" stroke="#2ecc71" points="322.962,-480 322.962,-500 318.962,-500 318.962,-480 322.962,-480"/>
<polyline fill="none" stroke="#2ecc71" points="324.962,-490 314.962,-490 "/>
</g>
<!-- モーゴット -->
<g id="node14" class="node"><title>モーゴット</title>
<polygon fill="white" stroke="mediumblue" points="505,-391 325,-391 325,-349 505,-349 505,-391"/>
<text text-anchor="start" x="376.1" y="-372.4" font-family="Helvetica, Arial, sans-serif" font-size="14.00">モーゴット</text>
<text text-anchor="start" x="349.858" y="-358" font-family="Helvetica, Arial, sans-serif" font-size="10.00" fill="#aaaaaa">忌み王、接ぎ木(マルギット)</text>
</g>
<!-- siblings_1&#45;&gt;モーゴット -->
<g id="edge13" class="edge"><title>siblings_1&#45;&gt;モーゴット</title>
<path fill="none" stroke="#2ecc71" d="M293,-429.326C293,-422.734 293,-370 293,-370 293,-370 314.736,-370 314.736,-370"/>
<polygon fill="#2ecc71" stroke="#2ecc71" points="322.735,-360 322.736,-380 318.736,-380 318.735,-360 322.735,-360"/>
<polyline fill="none" stroke="#2ecc71" points="324.736,-370 314.736,-370 "/>
</g>
<!-- モーグ -->
<g id="node15" class="node"><title>モーグ</title>
<polygon fill="white" stroke="mediumblue" points="505,-451 325,-451 325,-409 505,-409 505,-451"/>
<text text-anchor="start" x="388.56" y="-432.4" font-family="Helvetica, Arial, sans-serif" font-size="14.00">モーグ</text>
<text text-anchor="start" x="393.981" y="-418" font-family="Helvetica, Arial, sans-serif" font-size="10.00" fill="#aaaaaa">血の君主</text>
</g>
<!-- siblings_1&#45;&gt;モーグ -->
<g id="edge14" class="edge"><title>siblings_1&#45;&gt;モーグ</title>
<path fill="none" stroke="#2ecc71" d="M296.034,-430C296.034,-430 314.811,-430 314.811,-430"/>
<polygon fill="#2ecc71" stroke="#2ecc71" points="322.81,-420 322.811,-440 318.811,-440 318.81,-420 322.81,-420"/>
<polyline fill="none" stroke="#2ecc71" points="324.811,-430 314.811,-430 "/>
</g>
<!-- siblings_2 -->
<g id="node18" class="node"><title>siblings_2</title>
<polygon fill="#9b59b6" stroke="#cccccc" stroke-width="0" points="296,-129.5 289,-129.5 289,-128.5 296,-128.5 296,-129.5"/>
</g>
<!-- union_2&#45;&gt;siblings_2 -->
<g id="edge17" class="edge"><title>union_2&#45;&gt;siblings_2</title>
<path fill="none" stroke="#9b59b6" d="M260.083,-129C266.913,-129 281.732,-129 288.715,-129"/>
</g>
<!-- レナラ -->
<g id="node17" class="node"><title>レナラ</title>
<polygon fill="white" stroke="green" points="224,-150 44,-150 44,-108 224,-108 224,-150"/>
<text text-anchor="start" x="114.784" y="-131.4" font-family="Helvetica, Arial, sans-serif" font-size="14.00">レナラ</text>
<text text-anchor="start" x="108.532" y="-117" font-family="Helvetica, Arial, sans-serif" font-size="10.00" fill="#aaaaaa">満月の女王</text>
</g>
<!-- レナラ&#45;&gt;union_2 -->
<g id="edge16" class="edge"><title>レナラ&#45;&gt;union_2</title>
<path fill="none" stroke="#9b59b6" d="M224.315,-127.833C237.225,-127.833 247.892,-127.833 253.088,-127.833"/>
</g>
<!-- ラダーン -->
<g id="node19" class="node"><title>ラダーン</title>
<polygon fill="white" stroke="mediumblue" points="505,-120 325,-120 325,-78 505,-78 505,-120"/>
<text text-anchor="start" x="382.689" y="-101.4" font-family="Helvetica, Arial, sans-serif" font-size="14.00">ラダーン</text>
<text text-anchor="start" x="366.933" y="-87" font-family="Helvetica, Arial, sans-serif" font-size="10.00" fill="#aaaaaa">星砕きの英雄、将軍</text>
</g>
<!-- siblings_2&#45;&gt;ラダーン -->
<g id="edge18" class="edge"><title>siblings_2&#45;&gt;ラダーン</title>
<path fill="none" stroke="#9b59b6" d="M294,-128.355C294,-125.484 294,-114 294,-114 294,-114 314.846,-114 314.846,-114"/>
<polygon fill="#9b59b6" stroke="#9b59b6" points="322.846,-104 322.847,-124 318.847,-124 318.846,-104 322.846,-104"/>
<polyline fill="none" stroke="#9b59b6" points="324.846,-114 314.846,-114 "/>
</g>
<!-- ライカード -->
<g id="node20" class="node"><title>ライカード</title>
<polygon fill="white" stroke="mediumblue" points="505,-180 325,-180 325,-138 505,-138 505,-180"/>
<text text-anchor="start" x="376.986" y="-161.4" font-family="Helvetica, Arial, sans-serif" font-size="14.00">ライカード</text>
<text text-anchor="start" x="390.182" y="-147" font-family="Helvetica, Arial, sans-serif" font-size="10.00" fill="#aaaaaa">冒涜の君主</text>
</g>
<!-- siblings_2&#45;&gt;ライカード -->
<g id="edge19" class="edge"><title>siblings_2&#45;&gt;ライカード</title>
<path fill="none" stroke="#9b59b6" d="M293,-129.645C293,-132.516 293,-144 293,-144 293,-144 314.736,-144 314.736,-144"/>
<polygon fill="#9b59b6" stroke="#9b59b6" points="322.735,-134 322.736,-154 318.736,-154 318.735,-134 322.735,-134"/>
<polyline fill="none" stroke="#9b59b6" points="324.736,-144 314.736,-144 "/>
</g>
<!-- ラニ -->
<g id="node21" class="node"><title>ラニ</title>
<polygon fill="white" stroke="mediumblue" points="505,-60 325,-60 325,-18 505,-18 505,-60"/>
<text text-anchor="start" x="402.649" y="-41.4" font-family="Helvetica, Arial, sans-serif" font-size="14.00">ラニ</text>
<text text-anchor="start" x="393.976" y="-27" font-family="Helvetica, Arial, sans-serif" font-size="10.00" fill="#aaaaaa">月の王女</text>
</g>
<!-- siblings_2&#45;&gt;ラニ -->
<g id="edge20" class="edge"><title>siblings_2&#45;&gt;ラニ</title>
<path fill="none" stroke="#9b59b6" d="M292,-128.425C292,-120.76 292,-39 292,-39 292,-39 314.962,-39 314.962,-39"/>
<polygon fill="#9b59b6" stroke="#9b59b6" points="322.962,-29 322.962,-49 318.962,-49.0001 318.962,-29.0001 322.962,-29"/>
<polyline fill="none" stroke="#9b59b6" points="324.962,-39 314.962,-39.0001 "/>
</g>
<!-- union_3 -->
<g id="node22" class="node"><title>union_3</title>
<ellipse fill="#34495e" stroke="white" cx="537.5" cy="-239" rx="3.5" ry="3.5"/>
</g>
<!-- ラニ&#45;&gt;union_3 -->
<g id="edge21" class="edge"><title>ラニ&#45;&gt;union_3</title>
<path fill="none" stroke="#34495e" stroke-width="0.25" stroke-dasharray="5,2" d="M505.038,-39C523.794,-39 538,-39 538,-39 538,-39 538,-208.971 538,-235.529"/>
</g>
<!-- 主人公 -->
<g id="node23" class="node"><title>主人公</title>
<polygon fill="white" stroke="green" points="505,-269 325,-269 325,-227 505,-227 505,-269"/>
<text text-anchor="start" x="394.783" y="-250.4" font-family="Helvetica, Arial, sans-serif" font-size="14.00">主人公</text>
<text text-anchor="start" x="369.828" y="-236" font-family="Helvetica, Arial, sans-serif" font-size="10.00" fill="#aaaaaa">プレイヤー、褪せ人</text>
</g>
<!-- 主人公&#45;&gt;union_3 -->
<g id="edge22" class="edge"><title>主人公&#45;&gt;union_3</title>
<path fill="none" stroke="#34495e" stroke-width="0.25" stroke-dasharray="5,2" d="M505.315,-239C517.938,-239 528.417,-239 533.733,-239"/>
</g>
<!-- siblings_4 -->
<g id="node24" class="node"><title>siblings_4</title>
<polygon fill="#f1c40f" stroke="#cccccc" stroke-width="0" points="15,-589.5 8,-589.5 8,-588.5 15,-588.5 15,-589.5"/>
</g>
<!-- siblings_4&#45;&gt;マリカ -->
<g id="edge23" class="edge"><title>siblings_4&#45;&gt;マリカ</title>
<path fill="none" stroke="#f1c40f" stroke-width="0.25" stroke-dasharray="5,2" d="M12,-589.715C12,-599.254 12,-701 12,-701 12,-701 33.7356,-701 33.7356,-701"/>
<polygon fill="#f1c40f" stroke="#f1c40f" stroke-width="0.25" points="41.7355,-691 41.7357,-711 37.7357,-711 37.7355,-691 41.7355,-691"/>
<polyline fill="none" stroke="#f1c40f" stroke-width="0.25" points="43.7356,-701 33.7356,-701 "/>
</g>
<!-- マリケス -->
<g id="node25" class="node"><title>マリケス</title>
<polygon fill="white" stroke="darkslateblue" points="224,-600 44,-600 44,-558 224,-558 224,-600"/>
<text text-anchor="start" x="105.864" y="-581.4" font-family="Helvetica, Arial, sans-serif" font-size="14.00">マリケス</text>
<text text-anchor="start" x="67.8085" y="-567" font-family="Helvetica, Arial, sans-serif" font-size="10.00" fill="#aaaaaa">黒き剣、獣の司祭(グラング)</text>
</g>
<!-- siblings_4&#45;&gt;マリケス -->
<g id="edge24" class="edge"><title>siblings_4&#45;&gt;マリケス</title>
<path fill="none" stroke="#f1c40f" stroke-width="0.25" stroke-dasharray="5,2" d="M15.0341,-589C15.0341,-589 33.8106,-589 33.8106,-589"/>
<polygon fill="#f1c40f" stroke="#f1c40f" stroke-width="0.25" points="41.8105,-579 41.8107,-599 37.8107,-599 37.8105,-579 41.8105,-579"/>
<polyline fill="none" stroke="#f1c40f" stroke-width="0.25" points="43.8106,-589 33.8106,-589 "/>
</g>
</g>
</svg>
